<svg width="88" height="87" viewBox="0 0 88 87" fill="none" xmlns="http://www.w3.org/2000/svg">
<path d="M44 0.540039C40.0532 0.540914 36.5823 2.96637 35.214 6.50317H29.0403C28.1464 6.50317 27.3002 6.89261 26.7454 7.47058C26.1905 8.04855 25.8915 8.77192 25.778 9.51221L18.8688 54.5317C18.7121 55.5535 19.1711 56.5172 19.8026 57.1044C20.4342 57.6915 21.2495 58.026 22.1433 58.026H65.8567C66.7506 58.026 67.5689 57.6915 68.2005 57.1044C68.832 56.5172 69.2909 55.5535 69.1343 54.5317L62.2251 9.51221C62.1116 8.77194 61.8095 8.04855 61.2547 7.47058C60.6998 6.89261 59.8536 6.50317 58.9597 6.50317H52.7891C51.4229 2.96198 47.9512 0.539163 44 0.540039ZM44 2.10864C47.0972 2.10796 49.8019 3.87618 51.0709 6.50317H36.9199C38.1911 3.87642 40.9029 2.10933 44 2.10864ZM29.0403 9.62817H58.9597C59.0219 9.62817 58.9626 9.60548 58.9964 9.64038C59.03 9.67534 59.1053 9.80052 59.1337 9.98523L66.0184 54.843C65.97 54.8696 65.9076 54.901 65.8598 54.901H22.1433C22.0977 54.901 22.0304 54.869 21.9816 54.843L28.8694 9.98523C28.8977 9.80055 28.9732 9.67532 29.0067 9.64038C29.0403 9.60542 28.9781 9.62817 29.0403 9.62817ZM35.9373 12.5243C34.0374 12.5243 32.4674 14.0531 32.4674 15.9392C32.4674 17.8253 34.0374 19.3511 35.9373 19.3511C36.1196 19.3511 36.2962 19.3263 36.4713 19.2992C38.0958 21.7235 40.8905 23.2841 44 23.2848C47.1071 23.2855 49.9004 21.7268 51.5257 19.3053C51.6803 19.3263 51.8325 19.3511 51.9926 19.3511C53.8924 19.3511 55.4655 17.8253 55.4655 15.9392C55.4655 14.0531 53.8924 12.5243 51.9926 12.5243C50.0927 12.5243 48.5227 14.0531 48.5227 15.9392C48.5227 17.0972 49.1179 18.1143 50.015 18.7316C48.6528 20.5547 46.4591 21.7289 44 21.7284C41.526 21.7279 39.3206 20.54 37.9606 18.698C38.8326 18.0778 39.4102 17.0778 39.4102 15.9392C39.4102 14.0531 37.8371 12.5243 35.9373 12.5243ZM35.9373 14.0929C37.011 14.0929 37.8416 14.9162 37.8416 15.9392C37.8416 16.5076 37.5697 16.9989 37.158 17.34C36.9688 16.908 36.8129 16.4587 36.7124 15.985C36.6765 15.7884 36.5667 15.6131 36.4055 15.495C36.2443 15.377 36.044 15.3251 35.8457 15.3502C35.7372 15.3647 35.6329 15.4018 35.5396 15.4592C35.4463 15.5166 35.3662 15.5929 35.3043 15.6833C35.2424 15.7736 35.2003 15.876 35.1805 15.9837C35.1607 16.0914 35.1638 16.202 35.1896 16.3085C35.2944 16.8029 35.4449 17.2768 35.629 17.7336C34.7142 17.586 34.0238 16.8571 34.0238 15.9392C34.0238 14.9162 34.8636 14.0929 35.9373 14.0929ZM51.9926 14.0929C53.0663 14.0929 53.9091 14.9162 53.9091 15.9392C53.9091 16.8318 53.2536 17.5451 52.3771 17.7214C52.559 17.2683 52.7094 16.7984 52.8135 16.3085C52.8451 16.2049 52.8548 16.0959 52.842 15.9883C52.8292 15.8808 52.7942 15.7771 52.7391 15.6838C52.6841 15.5905 52.6103 15.5097 52.5224 15.4464C52.4345 15.3832 52.3344 15.3389 52.2285 15.3164C52.1225 15.2939 52.0131 15.2936 51.907 15.3157C51.801 15.3377 51.7007 15.3816 51.6125 15.4445C51.5244 15.5073 51.4502 15.5878 51.3948 15.6809C51.3394 15.7739 51.3039 15.8775 51.2907 15.985C51.1873 16.4716 51.0205 16.931 50.8237 17.3735C50.3798 17.033 50.0791 16.5301 50.0791 15.9392C50.0791 14.9162 50.9189 14.0929 51.9926 14.0929ZM13.2475 62.2985C13.1924 62.2986 13.1374 62.3016 13.0827 62.3076C12.7939 62.3356 12.5186 62.4442 12.2878 62.621C12.0571 62.7979 11.88 63.036 11.7765 63.3086L9.18861 70.1537L1.92543 70.5016C1.60761 70.5151 1.30151 70.6261 1.04825 70.8196C0.794983 71.0132 0.606694 71.2801 0.508678 71.5844C0.410661 71.8888 0.407612 72.216 0.49994 72.5222C0.592269 72.8283 0.775551 73.0987 1.02516 73.297L6.69838 77.8838L4.78188 84.9395C4.7012 85.2456 4.71463 85.5691 4.82041 85.8674C4.92618 86.1657 5.11933 86.4247 5.37441 86.6104C5.62949 86.7961 5.93452 86.8997 6.24931 86.9076C6.56411 86.9155 6.87389 86.8272 7.13783 86.6545L13.2352 82.6445L19.3113 86.6545C19.5752 86.8283 19.8854 86.9174 20.2008 86.9101C20.5162 86.9027 20.822 86.7993 21.0776 86.6134C21.3333 86.4275 21.5268 86.168 21.6327 85.8691C21.7385 85.5702 21.7516 85.246 21.6703 84.9395L19.7538 77.8838L25.427 73.297C25.6766 73.0987 25.8599 72.8283 25.9522 72.5222C26.0446 72.216 26.0415 71.8888 25.9435 71.5844C25.8455 71.2801 25.6572 71.0132 25.4039 70.8196C25.1507 70.6261 24.8446 70.5151 24.5267 70.5016L17.2605 70.1537L14.6909 63.3086C14.5794 63.0136 14.382 62.7594 14.1244 62.5792C13.8669 62.3989 13.5612 62.3011 13.2475 62.2985ZM44.0214 62.2985C43.9653 62.2985 43.9093 62.3015 43.8535 62.3076C43.5653 62.3362 43.2907 62.445 43.0605 62.6218C42.8303 62.7986 42.6537 63.0364 42.5504 63.3086L39.9625 70.1537L32.6963 70.5016C32.3785 70.5151 32.0724 70.6261 31.8191 70.8196C31.5659 71.0132 31.3776 71.2801 31.2796 71.5844C31.1815 71.8888 31.1785 72.216 31.2708 72.5222C31.3631 72.8283 31.5464 73.0987 31.796 73.297L37.4723 77.8838L35.5527 84.9395C35.4714 85.246 35.4846 85.5702 35.5904 85.8691C35.6962 86.168 35.8898 86.4275 36.1454 86.6134C36.4011 86.7993 36.7068 86.9027 37.0222 86.9101C37.3376 86.9174 37.6478 86.8283 37.9118 86.6545L44.0092 82.6445L50.0852 86.6545C50.3492 86.8272 50.659 86.9155 50.9737 86.9076C51.2885 86.8997 51.5936 86.7961 51.8486 86.6104C52.1037 86.4247 52.2969 86.1657 52.4027 85.8674C52.5084 85.5691 52.5219 85.2456 52.4412 84.9395L50.5247 77.8838L56.2009 73.297C56.4507 73.0985 56.634 72.8279 56.7263 72.5214C56.8185 72.215 56.8152 71.8876 56.7168 71.5831C56.6184 71.2786 56.4297 71.0117 56.1759 70.8184C55.9222 70.625 55.6157 70.5145 55.2976 70.5016L48.0344 70.1537L45.4649 63.3086C45.3534 63.0136 45.1559 62.7594 44.8983 62.5792C44.6408 62.3989 44.3351 62.3011 44.0214 62.2985ZM74.7923 62.2985C74.7372 62.2986 74.6822 62.3016 74.6275 62.3076C74.3392 62.3362 74.0646 62.445 73.8344 62.6218C73.6042 62.7986 73.4276 63.0364 73.3244 63.3086L70.7365 70.1537L63.4702 70.5016C63.1524 70.5151 62.8463 70.6261 62.593 70.8196C62.3398 71.0132 62.1515 71.2801 62.0535 71.5844C61.9555 71.8888 61.9524 72.216 62.0447 72.5222C62.1371 72.8283 62.3204 73.0987 62.57 73.297L68.2432 77.8838L66.3267 84.9395C66.2454 85.246 66.2585 85.5702 66.3643 85.8691C66.4701 86.168 66.6637 86.4275 66.9193 86.6134C67.175 86.7993 67.4808 86.9027 67.7962 86.9101C68.1116 86.9174 68.4217 86.8283 68.6857 86.6545L74.78 82.6445L80.8591 86.6545C81.1231 86.8272 81.4329 86.9155 81.7477 86.9076C82.0625 86.8997 82.3675 86.7961 82.6226 86.6104C82.8776 86.4247 83.0708 86.1657 83.1766 85.8674C83.2823 85.5691 83.2958 85.2456 83.2151 84.9395L81.2986 77.8838L86.9718 73.297C87.2214 73.0987 87.4047 72.8283 87.497 72.5222C87.5894 72.216 87.5863 71.8888 87.4883 71.5844C87.3903 71.2801 87.202 71.0132 86.9487 70.8196C86.6955 70.6261 86.3894 70.5151 86.0715 70.5016L78.8053 70.1537L76.2388 63.3086C76.1271 63.0132 75.9292 62.7586 75.671 62.5783C75.4129 62.398 75.1065 62.3005 74.7923 62.2985ZM13.2352 68.283L14.7123 72.2167C14.8177 72.504 15.0046 72.754 15.2497 72.9357C15.4949 73.1173 15.7876 73.2228 16.0917 73.239L20.2695 73.4496L17.0103 76.0711C16.7749 76.264 16.6007 76.5218 16.509 76.813C16.4174 77.1041 16.4124 77.4159 16.4945 77.7098L17.5871 81.7778L14.0775 79.4646C13.824 79.2978 13.5276 79.209 13.2246 79.209C12.9216 79.209 12.6252 79.2978 12.3716 79.4646L8.86513 81.7778L9.97597 77.7098C10.0557 77.4138 10.0474 77.1007 9.95188 76.8094C9.85641 76.5181 9.67803 76.2614 9.43886 76.0711L6.17958 73.4496L10.3605 73.239C10.6646 73.2228 10.9573 73.1173 11.2025 72.9357C11.4476 72.754 11.6344 72.504 11.7399 72.2167L13.2352 68.283ZM44.0092 68.283L45.4832 72.2167C45.5888 72.5045 45.7761 72.7547 46.0219 72.9365C46.2676 73.1182 46.561 73.2234 46.8656 73.239L51.0435 73.4496L47.7842 76.0711C47.5483 76.2636 47.3735 76.5213 47.2813 76.8125C47.1891 77.1036 47.1836 77.4156 47.2654 77.7098L48.3579 81.7778L44.8515 79.4646C44.5979 79.2978 44.3015 79.209 43.9985 79.209C43.6955 79.209 43.3991 79.2978 43.1455 79.4646L39.636 81.7778L40.7499 77.7098C40.8297 77.4138 40.8213 77.1007 40.7258 76.8094C40.6303 76.5181 40.452 76.2614 40.2128 76.0711L36.9535 73.4496L41.1314 73.239C41.436 73.2234 41.7294 73.1182 41.9751 72.9365C42.2209 72.7547 42.4082 72.5045 42.5138 72.2167L44.0092 68.283ZM74.78 68.283L76.2571 72.2167C76.3625 72.504 76.5494 72.754 76.7945 72.9357C77.0397 73.1173 77.3324 73.2228 77.6365 73.239L81.8174 73.4496L78.5581 76.0711C78.3222 76.2636 78.1474 76.5213 78.0552 76.8125C77.963 77.1036 77.9575 77.4156 78.0393 77.7098L79.1319 81.7778L75.6254 79.4646C75.3718 79.2978 75.0754 79.209 74.7724 79.209C74.4694 79.209 74.173 79.2978 73.9194 79.4646L70.4099 81.7778L71.5208 77.7098C71.6009 77.4141 71.593 77.1012 71.498 76.8099C71.4031 76.5186 71.2253 76.2617 70.9867 76.0711L67.7274 73.4496L71.9053 73.239C72.2094 73.2228 72.5021 73.1173 72.7473 72.9357C72.9924 72.754 73.1793 72.504 73.2847 72.2167L74.78 68.283Z" fill="#DE1B41"/>
</svg>
